<?xml version="1.0" encoding="UTF-8" standalone="no"?>
<!-- Created with Inkscape (http://www.inkscape.org/) -->
<svg
   xmlns:dc="http://purl.org/dc/elements/1.1/"
   xmlns:cc="http://creativecommons.org/ns#"
   xmlns:rdf="http://www.w3.org/1999/02/22-rdf-syntax-ns#"
   xmlns:svg="http://www.w3.org/2000/svg"
   xmlns="http://www.w3.org/2000/svg"
   xmlns:sodipodi="http://sodipodi.sourceforge.net/DTD/sodipodi-0.dtd"
   xmlns:inkscape="http://www.inkscape.org/namespaces/inkscape"
   height="450.64954"
   id="svg1"
   inkscape:version="0.46"
   sodipodi:docbase="C:\tmp\svg\signs\svg"
   sodipodi:docname="train.svg"
   sodipodi:version="0.32"
   width="513.38861"
   inkscape:output_extension="org.inkscape.output.svg.inkscape"
   version="1.0">
  <metadata
     id="metadata3">
    <rdf:RDF>
      <cc:Work
         rdf:about="">
        <dc:title>SVG Road Signs</dc:title>
        <dc:description />
        <dc:subject>
          <rdf:Bag>
            <rdf:li />
            <rdf:li>roadsign</rdf:li>
            <rdf:li>transportation</rdf:li>
          </rdf:Bag>
        </dc:subject>
        <dc:publisher>
          <cc:Agent
             rdf:about="http://www.openclipart.org">
            <dc:title>John Cliff</dc:title>
          </cc:Agent>
        </dc:publisher>
        <dc:creator>
          <cc:Agent>
            <dc:title>John Cliff</dc:title>
          </cc:Agent>
        </dc:creator>
        <dc:rights>
          <cc:Agent>
            <dc:title>John Cliff</dc:title>
          </cc:Agent>
        </dc:rights>
        <dc:date />
        <dc:format>image/svg+xml</dc:format>
        <dc:type
           rdf:resource="http://purl.org/dc/dcmitype/StillImage" />
        <cc:license
           rdf:resource="http://web.resource.org/cc/PublicDomain" />
        <dc:language>en</dc:language>
      </cc:Work>
      <cc:License
         rdf:about="http://web.resource.org/cc/PublicDomain">
        <cc:permits
           rdf:resource="http://web.resource.org/cc/Reproduction" />
        <cc:permits
           rdf:resource="http://web.resource.org/cc/Distribution" />
        <cc:permits
           rdf:resource="http://web.resource.org/cc/DerivativeWorks" />
      </cc:License>
    </rdf:RDF>
  </metadata>
  <defs
     id="defs3">
    <inkscape:perspective
       sodipodi:type="inkscape:persp3d"
       inkscape:vp_x="0 : 526.18109 : 1"
       inkscape:vp_y="0 : 1000 : 0"
       inkscape:vp_z="744.09448 : 526.18109 : 1"
       inkscape:persp3d-origin="372.04724 : 350.78739 : 1"
       id="perspective19" />
  </defs>
  <sodipodi:namedview
     bordercolor="#666666"
     borderopacity="1.0"
     id="base"
     inkscape:cx="382.09698"
     inkscape:cy="216.51717"
     inkscape:pageopacity="0.0"
     inkscape:pageshadow="2"
     inkscape:window-height="721"
     inkscape:window-width="1024"
     inkscape:window-x="110"
     inkscape:window-y="45"
     inkscape:zoom="1.2279697"
     pagecolor="#ffffff"
     showgrid="false"
     snaptogrid="false"
     snaptoguides="false"
     inkscape:current-layer="svg1" />
  <g
     id="g662"
     transform="translate(-182.37357,-226.73803)">
    <g
       id="g634"
       style="font-size:12px">
      <path
         d="M 208.6704,677.38758 C 189.58911,675.8254 176.59657,653.64921 184.95738,636.30371 C 219.53892,576.26532 377.37484,305.11167 415.29314,238.60664 C 426.18667,222.86284 451.88808,222.69907 462.72932,238.61249 C 497.43332,298.58017 654.59917,569.50057 693.23507,635.5913 C 701.42283,652.89727 688.71396,675.23723 669.51191,676.66931 C 600.22637,676.74001 285.2246,676.97327 208.6704,677.38758 z"
         id="path590"
         sodipodi:nodetypes="ccccccc"
         style="font-size:12px;fill:#ff0000;fill-rule:evenodd;stroke-width:3pt" />
      <path
         d="M 238.45743,636.18999 L 641.18573,635.02473 L 438.78057,279.47183 L 238.45743,636.18999 z"
         id="path605"
         sodipodi:nodetypes="cccc"
         style="font-size:12px;fill:#ffffff;fill-rule:evenodd;stroke-width:3pt" />
    </g>
    <path
       d="M 376.12521,592.76672 A 22.394464,22.394464 0 1 1 331.33628,592.76672 A 22.394464,22.394464 0 1 1 376.12521,592.76672 z"
       id="path644"
       sodipodi:cx="353.73074"
       sodipodi:cy="592.76672"
       sodipodi:rx="22.394464"
       sodipodi:ry="22.394464"
       sodipodi:type="arc"
       style="fill:#000000;fill-opacity:1;fill-rule:evenodd;stroke:#000000;stroke-width:3pt;stroke-linecap:butt;stroke-linejoin:miter;stroke-opacity:1"
       transform="translate(1.526895,0)" />
    <path
       d="M 376.12521,592.76672 A 22.394464,22.394464 0 1 1 331.33628,592.76672 A 22.394464,22.394464 0 1 1 376.12521,592.76672 z"
       id="path645"
       sodipodi:cx="353.73074"
       sodipodi:cy="592.76672"
       sodipodi:rx="22.394464"
       sodipodi:ry="22.394464"
       sodipodi:type="arc"
       style="fill:#000000;fill-opacity:1;fill-rule:evenodd;stroke:#000000;stroke-width:3pt;stroke-linecap:butt;stroke-linejoin:miter;stroke-opacity:1"
       transform="translate(56.49512,0)" />
    <path
       d="M 376.12521,592.76672 A 22.394464,22.394464 0 1 1 331.33628,592.76672 A 22.394464,22.394464 0 1 1 376.12521,592.76672 z"
       id="path646"
       sodipodi:cx="353.73074"
       sodipodi:cy="592.76672"
       sodipodi:rx="22.394464"
       sodipodi:ry="22.394464"
       sodipodi:type="arc"
       style="fill:#000000;fill-opacity:1;fill-rule:evenodd;stroke:#000000;stroke-width:3pt;stroke-linecap:butt;stroke-linejoin:miter;stroke-opacity:1"
       transform="translate(111.4633,0)" />
    <path
       d="M 376.12521,592.76672 A 22.394464,22.394464 0 1 1 331.33628,592.76672 A 22.394464,22.394464 0 1 1 376.12521,592.76672 z"
       id="path647"
       sodipodi:cx="353.73074"
       sodipodi:cy="592.76672"
       sodipodi:rx="22.394464"
       sodipodi:ry="22.394464"
       sodipodi:type="arc"
       style="fill:#000000;fill-opacity:1;fill-rule:evenodd;stroke:#000000;stroke-width:3pt;stroke-linecap:butt;stroke-linejoin:miter;stroke-opacity:1"
       transform="matrix(0.625,0,0,0.625,286.6109,230.6854)" />
    <path
       d="M 346.33962,547.89709 L 324.71973,547.88251 L 324.71973,584.62328 L 556.29884,584.62328 L 556.29884,564.7582 L 545.61057,564.77364 L 545.61057,517.43988 L 531.99576,517.43988 L 531.89237,509.04193 L 535.75337,504.84296 L 535.73349,501.66192 L 522.22998,501.66192 L 508.53561,501.66192 L 508.51574,504.52486 L 512.24949,508.59659 L 512.46421,517.43988 L 452.46986,517.43988 L 452.37027,510.82331 C 452.44762,507.37403 449.15096,501.54045 445.71934,501.69012 L 438.78305,501.6619 L 432.13211,501.56288 C 428.65036,501.55074 425.12362,505.90233 425.19582,510.56882 L 425.09623,517.43988 L 381.18119,517.43988 L 381.16392,501.60457 L 334.99033,501.5146 L 334.97307,517.43988 L 346.36262,517.43988 C 348.73871,517.4792 350.86032,520.1906 350.81882,522.52028 L 350.6943,543.24216 C 350.6424,545.6845 348.68187,547.99959 346.33962,547.89709 z"
       id="path650"
       sodipodi:nodetypes="ccccccccccccccccccccccccccccccc"
       style="font-size:12px;fill:#000000;fill-opacity:1;fill-rule:evenodd;stroke:#000000;stroke-width:2.92460003pt" />
    <path
       d="M 376.12521,592.76672 A 22.394464,22.394464 0 1 1 331.33628,592.76672 A 22.394464,22.394464 0 1 1 376.12521,592.76672 z"
       id="path648"
       sodipodi:cx="353.73074"
       sodipodi:cy="592.76672"
       sodipodi:rx="22.394464"
       sodipodi:ry="22.394464"
       sodipodi:type="arc"
       style="fill:#000000;fill-opacity:1;fill-rule:evenodd;stroke:#000000;stroke-width:3pt;stroke-linecap:butt;stroke-linejoin:miter;stroke-opacity:1"
       transform="matrix(0.625,0,0,0.625,319.6936,230.6854)" />
    <path
       d="M 376.12521,592.76672 A 22.394464,22.394464 0 1 1 331.33628,592.76672 A 22.394464,22.394464 0 1 1 376.12521,592.76672 z"
       id="path656"
       sodipodi:cx="353.73074"
       sodipodi:cy="592.76672"
       sodipodi:rx="22.394464"
       sodipodi:ry="22.394464"
       sodipodi:type="arc"
       style="fill:#000000;fill-opacity:1;fill-rule:evenodd;stroke:#000000;stroke-width:3pt;stroke-linecap:butt;stroke-linejoin:miter;stroke-opacity:1"
       transform="translate(111.4633,0)" />
    <path
       d="M 427.34271,404.46875 C 409.6429,404.46875 395.28022,418.83146 395.28021,436.53125 C 395.28021,454.23105 409.6429,468.59375 427.34271,468.59375 C 431.81767,468.59375 436.06608,467.65819 439.93646,466 C 445.57304,472.24159 453.65184,476.21875 462.71771,476.21875 C 464.97795,476.21875 467.18972,475.96261 469.31146,475.5 C 473.70456,480.01522 479.83147,482.84375 486.62396,482.84375 C 493.2965,482.84375 499.34337,480.13314 503.72211,475.7544 C 505.91148,473.56503 513.17223,474.78252 515.20699,480.21197 C 515.62258,481.39443 515.1059,500.66126 516.08761,500.82665 C 517.06933,500.99204 526.94535,502.1342 527.71927,501.29133 C 528.49318,500.44846 526.48764,485.50474 525.34732,478.95947 C 523.17661,466.31999 512.7067,450.38137 509.27254,446.21705 C 505.83839,442.05274 497.07486,436.17787 491.59271,435.03125 C 487.30964,423.18277 476.04194,414.65626 462.71771,414.65625 C 459.04128,414.65625 455.54982,415.4102 452.28021,416.59375 C 446.40268,409.24944 437.47389,404.46875 427.34271,404.46875 z"
       id="path661"
       sodipodi:nodetypes="cccccccsssssscccc"
       style="fill:#000000;fill-opacity:1;fill-rule:evenodd;stroke:#000000;stroke-width:3pt;stroke-linecap:butt;stroke-linejoin:miter;stroke-opacity:1" />
  </g>
</svg>
